<svg width="30" height="30" viewBox="0 0 30 30" fill="none" xmlns="http://www.w3.org/2000/svg">
<path d="M26.9162 8.88956C26.9353 9.15605 26.9353 9.42259 26.9353 9.68908C26.9353 17.8172 20.7488 27.1827 9.44162 27.1827C5.95811 27.1827 2.72209 26.1738 0 24.4226C0.494941 24.4797 0.970781 24.4987 1.48477 24.4987C4.35908 24.4987 7.00506 23.5279 9.11801 21.8718C6.41496 21.8147 4.14973 20.0444 3.36926 17.6078C3.75 17.6649 4.13068 17.703 4.53047 17.703C5.08248 17.703 5.63455 17.6268 6.14848 17.4936C3.33123 16.9225 1.21822 14.4479 1.21822 11.4594V11.3833C2.03672 11.8401 2.98857 12.1256 3.99738 12.1637C2.34129 11.0596 1.25631 9.17509 1.25631 7.0431C1.25631 5.90099 1.56082 4.85404 2.09385 3.94033C5.12051 7.67128 9.67002 10.1078 14.7715 10.3743C14.6763 9.91748 14.6192 9.44164 14.6192 8.96574C14.6192 5.57738 17.3603 2.81726 20.7677 2.81726C22.538 2.81726 24.1369 3.55964 25.2601 4.75888C26.6496 4.4924 27.9821 3.97841 29.1623 3.27412C28.7054 4.70181 27.7346 5.90105 26.4593 6.66242C27.6966 6.52923 28.8959 6.18652 29.9999 5.71068C29.1625 6.9289 28.1154 8.01388 26.9162 8.88956Z" fill="#FAF4E6"/>
</svg>
